<?xml version="1.0" encoding="UTF-8" standalone="no"?>
<!-- Created with Inkscape (http://www.inkscape.org/) -->

<svg
   width="37.041698mm"
   height="37.041668mm"
   viewBox="0 0 37.041698 37.041668"
   version="1.1"
   id="svg1"
   xml:space="preserve"
   xmlns="http://www.w3.org/2000/svg"
   xmlns:svg="http://www.w3.org/2000/svg"><defs
     id="defs1" /><g
     id="layer1"
     transform="translate(-536.41549,-207.79571)"><g
       id="g38"
       transform="matrix(0.36469834,0,0,0.36469834,433.61604,184.65245)"><path
         d="m 303.63935,63.458659 c -12.05743,0 -21.76405,9.707098 -21.76405,21.764563 v 58.039348 c 0,12.05747 9.70662,21.76405 21.76405,21.76405 h 29.01993 v -15.18874 h -26.21339 c -1.3044,0 -2.35437,-1.04997 -2.35437,-2.35438 v -1.00459 c 0,-1.3044 1.04997,-2.35489 2.35437,-2.35489 h 26.21339 v -1.56115 h -31.92673 c -1.30441,0 -2.35438,-1.05049 -2.35438,-2.35489 v -1.00459 c 0,-1.3044 1.04997,-2.35438 2.35438,-2.35438 h 31.92673 v -8.83667 h -21.92786 c -1.3044,0 -2.35489,-1.04997 -2.35489,-2.35438 v -1.00459 c 0,-1.3044 1.05049,-2.35438 2.35489,-2.35438 h 21.92786 v -1.56166 H 315.7306 c -1.30441,0 -2.35438,-1.05049 -2.35438,-2.35489 v -1.00407 c 0,-1.30441 1.04997,-2.3549 2.35438,-2.3549 h 16.92868 v -1.56166 h -11.9295 c -1.30441,0 -2.35438,-1.04998 -2.35438,-2.35438 v -1.00459 c 0,-1.3044 1.04997,-2.35438 2.35438,-2.35438 h 11.9295 v -1.56166 h -9.07283 c -1.3044,0 -2.35438,-1.04997 -2.35438,-2.35438 v -1.00459 c 0,-1.3044 1.04998,-2.35438 2.35438,-2.35438 h 9.07283 v -1.561658 h -7.64398 c -1.3044,0 -2.35489,-1.049974 -2.35489,-2.354378 v -1.00459 c 0,-1.304404 1.05049,-2.354895 2.35489,-2.354895 h 7.64398 v -1.561145 h -7.64398 c -1.3044,0 -2.35489,-1.050491 -2.35489,-2.354895 v -1.00459 c 0,-1.304404 1.05049,-2.354378 2.35489,-2.354378 h 7.64398 v -1.561662 h -11.9295 c -1.30441,0 -2.35438,-1.049974 -2.35438,-2.354378 v -1.00459 c 0,-1.304405 1.04997,-2.354378 2.35438,-2.354378 h 11.9295 V 63.458659 Z m 2.09238,66.115341 h 23.859 c 1.30441,0 2.35438,1.04998 2.35438,2.35438 v 1.00459 c 0,1.30441 -1.04997,2.35438 -2.35438,2.35438 h -23.859 c -1.30441,0 -2.35438,-1.04997 -2.35438,-2.35438 v -1.00459 c 0,-1.3044 1.04997,-2.35438 2.35438,-2.35438 z"
         style="fill:#5d3f7c;fill-rule:evenodd;stroke-width:2.78048;stroke-linecap:round"
         id="path32" /><path
         d="m 332.65928,63.458659 v 15.189254 h 11.92951 c 1.3044,0 2.35437,1.049973 2.35437,2.354378 v 1.00459 c 0,1.304404 -1.04997,2.354378 -2.35437,2.354378 h -11.92951 v 1.561662 h 7.64398 c 1.3044,0 2.35489,1.049974 2.35489,2.354378 v 1.00459 c 0,1.304404 -1.05049,2.354895 -2.35489,2.354895 h -7.64398 v 1.561145 h 7.64398 c 1.3044,0 2.35489,1.050491 2.35489,2.354895 v 1.00459 c 0,1.304404 -1.05049,2.354378 -2.35489,2.354378 h -7.64398 v 1.561658 h 9.07232 c 1.3044,0 2.35489,1.04998 2.35489,2.35438 v 1.00459 c 0,1.30441 -1.05049,2.35438 -2.35489,2.35438 h -9.07232 v 1.56166 h 11.92951 c 1.3044,0 2.35437,1.04998 2.35437,2.35438 v 1.00459 c 0,1.3044 -1.04997,2.35438 -2.35437,2.35438 h -11.92951 v 1.56166 h 6.92981 c 1.30441,0 2.3549,1.05049 2.3549,2.3549 v 1.00407 c 0,1.3044 -1.05049,2.35489 -2.3549,2.35489 h -6.92981 v 1.56166 h 1.93063 c 1.30441,0 2.35438,1.04998 2.35438,2.35438 v 1.00459 c 0,1.30441 -1.04997,2.35438 -2.35438,2.35438 h -1.93063 v 8.83667 h 31.92673 c 1.30441,0 2.35438,1.04998 2.35438,2.35438 v 1.00459 c 0,1.3044 -1.04997,2.35489 -2.35438,2.35489 h -31.92673 v 1.56115 h 26.21339 c 1.3044,0 2.35438,1.05049 2.35438,2.35489 v 1.00459 c 0,1.30441 -1.04998,2.35438 -2.35438,2.35438 h -26.21339 v 15.18874 h 29.01942 c 12.05746,0 21.76456,-9.70658 21.76456,-21.76405 V 85.223222 c 0,-12.057465 -9.7071,-21.764563 -21.76456,-21.764563 z M 347.15504,129.574 h 12.4318 c 1.3044,0 2.35438,1.04998 2.35438,2.35438 v 1.00459 c 0,1.30441 -1.04998,2.35438 -2.35438,2.35438 h -12.4318 c -1.30441,0 -2.35438,-1.04997 -2.35438,-2.35438 v -1.00459 c 0,-1.3044 1.04997,-2.35438 2.35438,-2.35438 z"
         style="fill:#7a599f;fill-rule:evenodd;stroke-width:1.96609;stroke-linecap:round"
         id="path1" /><path
         d="m 332.65928,91.636784 v -5.713863 h -7.64398 c -1.3044,0 -2.35489,1.049974 -2.35489,2.354378 v 1.00459 c 0,1.304404 1.05049,2.354895 2.35489,2.354895 z"
         style="fill:#d0d0d0;fill-opacity:1;fill-rule:evenodd;stroke-width:0.348382;stroke-linecap:round"
         id="path27" /><path
         d="m 332.65928,91.636784 h 7.64398 c 1.3044,0 2.35489,-1.050491 2.35489,-2.354895 v -1.00459 c 0,-1.304404 -1.05049,-2.354378 -2.35489,-2.354378 h -7.64398 z"
         style="fill:#f5f5f5;fill-opacity:1;fill-rule:evenodd;stroke-width:0.348382;stroke-linecap:round"
         id="path3" /><path
         d="m 332.65928,84.361259 v -5.713346 h -11.9295 c -1.30441,0 -2.35438,1.049973 -2.35438,2.354378 v 1.00459 c 0,1.304404 1.04997,2.354378 2.35438,2.354378 z"
         style="fill:#d0d0d0;fill-opacity:1;fill-rule:evenodd;stroke-width:0.416396;stroke-linecap:round"
         id="path31" /><path
         d="m 332.65928,84.361259 h 11.92951 c 1.3044,0 2.35437,-1.049974 2.35437,-2.354378 v -1.00459 c 0,-1.304405 -1.04997,-2.354378 -2.35437,-2.354378 h -11.92951 z"
         style="fill:#f5f5f5;fill-opacity:1;fill-rule:evenodd;stroke-width:0.416396;stroke-linecap:round"
         id="path2" /><path
         d="m 332.65928,98.911792 v -5.713863 h -7.64398 c -1.3044,0 -2.35489,1.050491 -2.35489,2.354895 v 1.00459 c 0,1.304404 1.05049,2.354378 2.35489,2.354378 z"
         style="fill:#d0d0d0;fill-opacity:1;fill-rule:evenodd;stroke-width:0.348382;stroke-linecap:round"
         id="path26" /><path
         d="m 332.65928,98.911792 h 7.64398 c 1.3044,0 2.35489,-1.049974 2.35489,-2.354378 v -1.00459 c 0,-1.304404 -1.05049,-2.354895 -2.35489,-2.354895 h -7.64398 z"
         style="fill:#f5f5f5;fill-opacity:1;fill-rule:evenodd;stroke-width:0.348382;stroke-linecap:round"
         id="path4" /><path
         d="m 332.65928,106.1868 v -5.71335 h -9.07283 c -1.3044,0 -2.35438,1.04998 -2.35438,2.35438 v 1.00459 c 0,1.30441 1.04998,2.35438 2.35438,2.35438 z"
         style="fill:#d0d0d0;fill-opacity:1;fill-rule:evenodd;stroke-width:0.372436;stroke-linecap:round"
         id="path25" /><path
         d="m 332.65928,106.1868 h 9.07232 c 1.3044,0 2.35489,-1.04997 2.35489,-2.35438 v -1.00459 c 0,-1.3044 -1.05049,-2.35438 -2.35489,-2.35438 h -9.07232 z"
         style="fill:#f5f5f5;fill-opacity:1;fill-rule:evenodd;stroke-width:0.372436;stroke-linecap:round"
         id="path9" /><path
         d="m 332.65928,113.46181 v -5.71335 h -11.9295 c -1.30441,0 -2.35438,1.04998 -2.35438,2.35438 v 1.00459 c 0,1.3044 1.04997,2.35438 2.35438,2.35438 z"
         style="fill:#d0d0d0;fill-opacity:1;fill-rule:evenodd;stroke-width:0.416396;stroke-linecap:round"
         id="path24" /><path
         d="m 332.65928,113.46181 h 11.92951 c 1.3044,0 2.35437,-1.04998 2.35437,-2.35438 v -1.00459 c 0,-1.3044 -1.04997,-2.35438 -2.35437,-2.35438 h -11.92951 z"
         style="fill:#f5f5f5;fill-opacity:1;fill-rule:evenodd;stroke-width:0.416396;stroke-linecap:round"
         id="path10" /><path
         d="m 332.65928,128.01234 v -5.71335 h -21.92786 c -1.3044,0 -2.35489,1.04998 -2.35489,2.35438 v 1.00459 c 0,1.30441 1.05049,2.35438 2.35489,2.35438 z"
         style="fill:#d0d0d0;fill-opacity:1;fill-rule:evenodd;stroke-width:0.416396;stroke-linecap:round"
         id="path13" /><path
         d="m 332.65928,128.01234 h 1.93063 c 1.30441,0 2.35438,-1.04997 2.35438,-2.35438 v -1.00459 c 0,-1.3044 -1.04997,-2.35438 -2.35438,-2.35438 h -1.93063 z"
         style="fill:#f5f5f5;fill-opacity:1;fill-rule:evenodd;stroke-width:0.416396;stroke-linecap:round"
         id="path12" /><path
         d="m 332.65928,120.73733 v -5.71386 H 315.7306 c -1.30441,0 -2.35438,1.05049 -2.35438,2.3549 v 1.00407 c 0,1.3044 1.04997,2.35489 2.35438,2.35489 z"
         style="fill:#d0d0d0;fill-opacity:1;fill-rule:evenodd;stroke-width:0.416396;stroke-linecap:round"
         id="path23" /><path
         d="m 332.65928,120.73733 h 6.92981 c 1.30441,0 2.3549,-1.05049 2.3549,-2.35489 v -1.00407 c 0,-1.30441 -1.05049,-2.3549 -2.3549,-2.3549 h -6.92981 z"
         style="fill:#f5f5f5;fill-opacity:1;fill-rule:evenodd;stroke-width:0.416396;stroke-linecap:round"
         id="path11" /><path
         d="m 305.73173,129.574 c -1.30441,0 -2.35438,1.04998 -2.35438,2.35438 v 1.00459 c 0,1.30441 1.04997,2.35438 2.35438,2.35438 h 23.859 c 1.30441,0 2.35438,-1.04997 2.35438,-2.35438 v -1.00459 c 0,-1.3044 -1.04997,-2.35438 -2.35438,-2.35438 z"
         style="fill:#d0d0d0;fill-opacity:1;fill-rule:evenodd;stroke-width:0.416396;stroke-linecap:round"
         id="path33" /><path
         d="m 332.65928,142.56287 h 31.92673 c 1.30441,0 2.35438,-1.05049 2.35438,-2.35489 v -1.00459 c 0,-1.3044 -1.04997,-2.35438 -2.35438,-2.35438 h -31.92673 z"
         style="fill:#f5f5f5;fill-opacity:1;fill-rule:evenodd;stroke-width:0.645077;stroke-linecap:round"
         id="path37" /><path
         d="m 332.65928,142.56287 v -5.71386 h -31.92673 c -1.30441,0 -2.35438,1.04998 -2.35438,2.35438 v 1.00459 c 0,1.3044 1.04997,2.35489 2.35438,2.35489 z"
         style="fill:#d0d0d0;fill-opacity:1;fill-rule:evenodd;stroke-width:0.645077;stroke-linecap:round"
         id="path34" /><path
         d="m 332.65928,149.83788 h 26.21339 c 1.3044,0 2.35438,-1.04997 2.35438,-2.35438 v -1.00459 c 0,-1.3044 -1.04998,-2.35489 -2.35438,-2.35489 h -26.21339 z"
         style="fill:#f5f5f5;fill-opacity:1;fill-rule:evenodd;stroke-width:0.588878;stroke-linecap:round"
         id="path36" /><path
         d="m 332.65928,149.83788 v -5.71386 h -26.21339 c -1.3044,0 -2.35437,1.05049 -2.35437,2.35489 v 1.00459 c 0,1.30441 1.04997,2.35438 2.35437,2.35438 z"
         style="fill:#d0d0d0;fill-opacity:1;fill-rule:evenodd;stroke-width:0.588878;stroke-linecap:round"
         id="path35" /><path
         d="m 347.15504,129.574 c -1.30441,0 -2.35438,1.04998 -2.35438,2.35438 v 1.00459 c 0,1.30441 1.04997,2.35438 2.35438,2.35438 h 12.4318 c 1.3044,0 2.35438,-1.04997 2.35438,-2.35438 v -1.00459 c 0,-1.3044 -1.04998,-2.35438 -2.35438,-2.35438 z"
         style="fill:#f5f5f5;fill-opacity:1;fill-rule:evenodd;stroke-width:0.322539;stroke-linecap:round"
         id="path38" /></g><rect
       style="opacity:0.905192;fill:none;fill-opacity:1;fill-rule:evenodd;stroke:#7a599f;stroke-width:1.89591;stroke-linecap:round;stroke-dasharray:none;stroke-opacity:1"
       id="rect10"
       width="183.31242"
       height="103.93742"
       x="464.90192"
       y="170.2495"
       ry="5.2741361" /></g></svg>
