<?xml version="1.0" encoding="UTF-8" standalone="no"?>
<svg
   width="16"
   height="16"
   fill="currentColor"
   class="bi bi-sort-alpha-up"
   viewBox="0 0 16 16"
   version="1.1"
   id="svg2"
   sodipodi:docname="SortZA.svg"
   inkscape:version="1.4 (86a8ad7, 2024-10-11)"
   xmlns:inkscape="http://www.inkscape.org/namespaces/inkscape"
   xmlns:sodipodi="http://sodipodi.sourceforge.net/DTD/sodipodi-0.dtd"
   xmlns="http://www.w3.org/2000/svg"
   xmlns:svg="http://www.w3.org/2000/svg">
  <defs
     id="defs2" />
  <sodipodi:namedview
     id="namedview2"
     pagecolor="#ffffff"
     bordercolor="#000000"
     borderopacity="0.25"
     inkscape:showpageshadow="2"
     inkscape:pageopacity="0.0"
     inkscape:pagecheckerboard="0"
     inkscape:deskcolor="#d1d1d1"
     inkscape:zoom="51.8125"
     inkscape:cx="8"
     inkscape:cy="8"
     inkscape:window-width="1920"
     inkscape:window-height="1009"
     inkscape:window-x="1912"
     inkscape:window-y="-8"
     inkscape:window-maximized="1"
     inkscape:current-layer="svg2" />
  <path
     fill-rule="evenodd"
     d="M10.082 5.629 9.664 7H8.598l1.789-5.332h1.234L13.402 7h-1.12l-.419-1.371zm1.57-.785L11 2.687h-.047l-.652 2.157z"
     id="path1"
     style="fill:#ffffff;fill-opacity:1" />
  <path
     d="M12.96 14H9.028v-.691l2.579-3.72v-.054H9.098v-.867h3.785v.691l-2.567 3.72v.054h2.645zm-8.46-.5a.5.5 0 0 1-1 0V3.707L2.354 4.854a.5.5 0 1 1-.708-.708l2-1.999.007-.007a.5.5 0 0 1 .7.006l2 2a.5.5 0 1 1-.707.708L4.5 3.707z"
     id="path2"
     style="fill:#ffffff;fill-opacity:1" />
</svg>
